HIERARCHY
ROOT root
{
  OFFSET 0 93.2929 0
  CHANNELS 6 Xposition Yposition Zposition Zrotation Xrotation Yrotation
  JOINT torso_1
  {
    OFFSET 0 5.07867 -1.15138
    CHANNELS 6 Xposition Yposition Zposition Zrotation Xrotation Yrotation
    JOINT torso_2
    {
      OFFSET 0 5.61661 1.07143
      CHANNELS 6 Xposition Yposition Zposition Zrotation Xrotation Yrotation
      JOINT torso_3
      {
        OFFSET -1.02604e-17 5.98978 0.11501
        CHANNELS 6 Xposition Yposition Zposition Zrotation Xrotation Yrotation
        JOINT torso_4
        {
          OFFSET -1.10457e-17 6.50583 -0.443523
          CHANNELS 6 Xposition Yposition Zposition Zrotation Xrotation Yrotation
          JOINT torso_5
          {
            OFFSET -1.97295e-17 7.60548 -1.50593
            CHANNELS 6 Xposition Yposition Zposition Zrotation Xrotation Yrotation
            JOINT torso_6
            {
              OFFSET -2.53307e-17 9.49737 -0.914492
              CHANNELS 6 Xposition Yposition Zposition Zrotation Xrotation Yrotation
              JOINT torso_7
              {
                OFFSET -2.90401e-17 10.5513 1.57691
                CHANNELS 6 Xposition Yposition Zposition Zrotation Xrotation Yrotation
                JOINT neck_1
                {
                  OFFSET -1.29193e-17 4.78644 0.715339
                  CHANNELS 6 Xposition Yposition Zposition Zrotation Xrotation Yrotation
                  JOINT neck_2
                  {
                    OFFSET -1.8116e-17 4.82109 0.421791
                    CHANNELS 6 Xposition Yposition Zposition Zrotation Xrotation Yrotation
                    JOINT head
                    {
                      OFFSET -2.00958e-17 4.83041 0.765062
                      CHANNELS 6 Xposition Yposition Zposition Zrotation Xrotation Yrotation
                      End Site
                      {
                        OFFSET 0 0.1 0
                      }
                    }
                  }
                }
                JOINT l_shoulder
                {
                  OFFSET 1.23299 -7.60731 7.53374
                  CHANNELS 6 Xposition Yposition Zposition Zrotation Xrotation Yrotation
                  JOINT l_up_arm
                  {
                    OFFSET 12.9547 3.2495 -3.26872
                    CHANNELS 6 Xposition Yposition Zposition Zrotation Xrotation Yrotation
                    JOINT l_low_arm
                    {
                      OFFSET 29.2081 0.0598081 0.137039
                      CHANNELS 6 Xposition Yposition Zposition Zrotation Xrotation Yrotation
                      JOINT l_hand
                      {
                        OFFSET 24.234 0.0496219 0.113701
                        CHANNELS 6 Xposition Yposition Zposition Zrotation Xrotation Yrotation
                        End Site
                        {
                          OFFSET 0.1 0 0
                        }
                      }
                    }
                  }
                }
                JOINT r_shoulder
                {
                  OFFSET -1.23299 -7.60729 7.53365
                  CHANNELS 6 Xposition Yposition Zposition Zrotation Xrotation Yrotation
                  JOINT r_up_arm
                  {
                    OFFSET -12.9547 3.2495 -3.26872
                    CHANNELS 6 Xposition Yposition Zposition Zrotation Xrotation Yrotation
                    JOINT r_low_arm
                    {
                      OFFSET -29.2081 0.0598081 0.137039
                      CHANNELS 6 Xposition Yposition Zposition Zrotation Xrotation Yrotation
                      JOINT r_hand
                      {
                        OFFSET -24.234 0.0496218 0.113702
                        CHANNELS 6 Xposition Yposition Zposition Zrotation Xrotation Yrotation
                        End Site
                        {
                          OFFSET -0.1 0 0
                        }
                      }
                    }
                  }
                }
              }
            }
          }
        }
      }
    }
  }
  JOINT l_up_leg
  {
    OFFSET 9.23673 -4.20556 2.0327
    CHANNELS 6 Xposition Yposition Zposition Zrotation Xrotation Yrotation
    JOINT l_low_leg
    {
      OFFSET -0.852353 -38.7721 -0.655187
      CHANNELS 6 Xposition Yposition Zposition Zrotation Xrotation Yrotation
      JOINT l_foot
      {
        OFFSET -2.32622 -40.4017 -6.04875
        CHANNELS 6 Xposition Yposition Zposition Zrotation Xrotation Yrotation
        JOINT l_toes
        {
          OFFSET 0.779096 -9.8844 12.4959
          CHANNELS 6 Xposition Yposition Zposition Zrotation Xrotation Yrotation
          End Site
          {
            OFFSET 0 0 0.1
          }
        }
      }
    }
  }
  JOINT r_up_leg
  {
    OFFSET -9.23673 -4.20556 2.0327
    CHANNELS 6 Xposition Yposition Zposition Zrotation Xrotation Yrotation
    JOINT r_low_leg
    {
      OFFSET 0.852353 -38.7721 -0.655187
      CHANNELS 6 Xposition Yposition Zposition Zrotation Xrotation Yrotation
      JOINT r_foot
      {
        OFFSET 2.32622 -40.4017 -6.04875
        CHANNELS 6 Xposition Yposition Zposition Zrotation Xrotation Yrotation
        JOINT r_toes
        {
          OFFSET -0.779096 -9.8844 12.4959
          CHANNELS 6 Xposition Yposition Zposition Zrotation Xrotation Yrotation
          End Site
          {
            OFFSET 0 0 0.1
          }
        }
      }
    }
  }
}
MOTION
Frames: 8
Frame Time: 0.016667
-2.01447 91.8092 65.874 2.59068 1.15397 2.99773 0 5.07867 -1.15138 -3.00433 7.40154 -0.0517536 0 5.61661 1.07143 -2.31787 7.03016 -0.277484 -1.02604e-17 5.98978 0.11501 -1.74176 7.2957 -0.149241 -1.10457e-17 6.50583 -0.443523 -1.15832 7.4723 -0.101227 -1.97295e-17 7.60548 -1.50593 -0.618486 6.81519 0.021038 -2.53307e-17 9.49737 -0.914492 -0.0263732 6.72143 -0.16157 -2.90401e-17 10.5513 1.57691 0.0690178 0.149176 -0.0815434 -1.29193e-17 4.78644 0.715339 -0.0823775 11.7665 -1.35505 -1.8116e-17 4.82109 0.421791 1.50948 -7.08489 -0.743682 -2.00958e-17 4.83041 0.765062 -2.02286 -10.9564 1.2644 1.23299 -7.60731 7.53374 8.62387 -2.31834 -0.854384 12.9547 3.2495 -3.26872 -54.9879 29.3669 -35.4671 29.2081 0.0598081 0.137039 5.66978 -1.40477 -28.4033 24.234 0.0496219 0.113701 -1.81861 -11.3743 -2.20345 -1.23299 -7.60729 7.53365 -6.81754 -2.46769 1.07715 -12.9547 3.2495 -3.26872 70.3213 22.1136 13.5166 -29.2081 0.0598081 0.137039 -6.43487 -1.85028 32.6484 -24.234 0.0496218 0.113702 0.147105 9.51951 1.87633 9.23673 -4.20556 2.0327 -2.74681 -24.2892 -11.451 -0.852353 -38.7721 -0.655187 -4.77173 17.42 0.42471 -2.32622 -40.4017 -6.04875 -5.68678 8.60189 15.822 0.779096 -9.8844 12.4959 -4.04181e-16 -8.15249e-16 3.25348e-17 -9.23673 -4.20556 2.0327 -5.74051 -12.1667 25.3677 0.852353 -38.7721 -0.655187 8.11076 28.1859 -1.53548 2.32622 -40.4017 -6.04875 0.441592 -12.4663 -16.2078 -0.779096 -9.8844 12.4959 -5.96354e-16 -5.59082e-16 -1.27471e-14 
-2.55651 92.3669 66.0844 2.65642 1.04401 2.9149 0 5.07867 -1.15138 -2.90796 7.32344 -0.0595243 0 5.61661 1.07143 -2.2382 6.9559 -0.274327 -1.02604e-17 5.98978 0.11501 -1.67846 7.22259 -0.147553 -1.10457e-17 6.50583 -0.443523 -1.11308 7.3966 -0.101217 -1.97295e-17 7.60548 -1.50593 -0.585215 6.74661 0.0115163 -2.53307e-17 9.49737 -0.914492 -0.0117064 6.64788 -0.174221 -2.90401e-17 10.5513 1.57691 0.0707922 0.159352 -0.0813795 -1.29193e-17 4.78644 0.715339 -0.0453921 11.726 -1.57348 -1.8116e-17 4.82109 0.421791 1.49415 -7.27217 -0.848097 -2.00958e-17 4.83041 0.765062 -1.88663 -11.2787 1.2575 1.23299 -7.60731 7.53374 8.6585 -2.21903 -0.832079 12.9547 3.2495 -3.26872 -55.1119 30.3945 -35.1157 29.2081 0.0598081 0.137039 5.71376 -1.42837 -28.6428 24.234 0.0496219 0.113701 -1.68321 -12.391 -2.10771 -1.23299 -7.60729 7.53365 -6.90859 -2.41905 1.07658 -12.9547 3.2495 -3.26872 70.2634 22.4437 13.417 -29.2081 0.0598081 0.137039 -6.39895 -1.82763 32.445 -24.234 0.0496218 0.113702 0.26697 7.7615 1.85741 9.23673 -4.20556 2.0327 -2.39821 -23.0576 -11.0018 -0.852353 -38.7721 -0.655187 -4.19397 15.4027 0.296723 -2.32622 -40.4017 -6.04875 -6.21792 10.6421 15.8929 0.779096 -9.8844 12.4959 9.2105e-16 -7.60131e-16 -2.25838e-17 -9.23673 -4.20556 2.0327 -5.9922 -10.9924 25.1848 0.852353 -38.7721 -0.655187 7.14373 25.2403 -1.15239 2.32622 -40.4017 -6.04875 0.123755 -11.6902 -16.1745 -0.779096 -9.8844 12.4959 -3.72304e-16 -5.73085e-16 -1.27541e-14 
-3.14895 92.7887 66.3351 2.80129 0.909347 2.91737 0 5.07867 -1.15138 -2.85585 7.22595 -0.0699779 0 5.61661 1.07143 -2.19223 6.8653 -0.278379 -1.02604e-17 5.98978 0.11501 -1.63907 7.13948 -0.152961 -1.10457e-17 6.50583 -0.443523 -1.08134 7.31958 -0.107737 -1.97295e-17 7.60548 -1.50593 -0.558057 6.68134 -0.00223356 -2.53307e-17 9.49737 -0.914492 0.00518983 6.58237 -0.192308 -2.90401e-17 10.5513 1.57691 0.0706485 0.168668 -0.0803936 -1.29193e-17 4.78644 0.715339 -0.0128308 11.6757 -1.82112 -1.8116e-17 4.82109 0.421791 1.50176 -7.4476 -0.966418 -2.00958e-17 4.83041 0.765062 -1.68612 -11.5524 1.28943 1.23299 -7.60731 7.53374 8.7086 -2.12473 -0.773498 12.9547 3.2495 -3.26872 -55.3781 31.2798 -34.6404 29.2081 0.0598081 0.137039 5.78023 -1.4645 -29.0057 24.234 0.0496219 0.113701 -1.56314 -13.4529 -1.9339 -1.23299 -7.60729 7.53365 -6.94939 -2.36256 1.07308 -12.9547 3.2495 -3.26872 70.3405 22.7655 13.1841 -29.2081 0.0598081 0.137039 -6.3862 -1.81963 32.3728 -24.234 0.0496218 0.113702 0.367403 5.89308 1.82477 9.23673 -4.20556 2.0327 -2.13565 -22.0067 -10.5703 -0.852353 -38.7721 -0.655187 -3.75485 13.8449 0.213073 -2.32622 -40.4017 -6.04875 -6.6706 12.2722 15.979 0.779096 -9.8844 12.4959 1.14176e-15 -7.52742e-16 -2.99726e-17 -9.23673 -4.20556 2.0327 -6.24629 -9.92038 25.0148 0.852353 -38.7721 -0.655187 6.41334 22.9185 -0.895061 2.32622 -40.4017 -6.04875 0.0266476 -10.8231 -16.1338 -0.779096 -9.8844 12.4959 -3.56574e-16 -5.74068e-16 -1.27546e-14 
-3.76553 93.0592 66.6124 2.9946 0.766164 3.00933 0 5.07867 -1.15138 -2.83093 7.12207 -0.0884012 0 5.61661 1.07143 -2.16584 6.76589 -0.292844 -1.02604e-17 5.98978 0.11501 -1.61264 7.05065 -0.168704 -1.10457e-17 6.50583 -0.443523 -1.05452 7.24263 -0.123921 -1.97295e-17 7.60548 -1.50593 -0.531483 6.61876 -0.0248931 -2.53307e-17 9.49737 -0.914492 0.0258339 6.52571 -0.221317 -2.90401e-17 10.5513 1.57691 0.0691819 0.177906 -0.0780973 -1.29193e-17 4.78644 0.715339 0.0153351 11.6026 -2.06084 -1.8116e-17 4.82109 0.421791 1.51436 -7.63365 -1.08161 -2.00958e-17 4.83041 0.765062 -1.46509 -11.7941 1.32181 1.23299 -7.60731 7.53374 8.76031 -2.0358 -0.684354 12.9547 3.2495 -3.26872 -55.7326 31.9924 -34.0864 29.2081 0.0598081 0.137039 5.85729 -1.50706 -29.428 24.234 0.0496219 0.113701 -1.50169 -14.753 -1.73791 -1.23299 -7.60729 7.53365 -6.89693 -2.30388 1.09417 -12.9547 3.2495 -3.26872 70.5122 22.9173 12.88 -29.2081 0.0598081 0.137039 -6.39362 -1.82428 32.4148 -24.234 0.0496218 0.113702 0.427936 4.27265 1.73887 9.23673 -4.20556 2.0327 -1.95326 -21.1584 -10.2552 -0.852353 -38.7721 -0.655187 -3.45535 12.7714 0.162884 -2.32622 -40.4017 -6.04875 -6.99049 13.324 16.0626 0.779096 -9.8844 12.4959 3.3089e-16 -7.85575e-16 2.86023e-18 -9.23673 -4.20556 2.0327 -6.54383 -8.93111 24.6219 0.852353 -38.7721 -0.655187 5.86808 21.1334 -0.72183 2.32622 -40.4017 -6.04875 0.303113 -9.74669 -16.0917 -0.779096 -9.8844 12.4959 -7.79409e-16 -5.53361e-16 -1.27385e-14 
-4.36935 93.1649 66.9036 3.19243 0.588282 3.1495 0 5.07867 -1.15138 -2.80543 7.04211 -0.114796 0 5.61661 1.07143 -2.13642 6.67573 -0.315296 -1.02604e-17 5.98978 0.11501 -1.58191 6.96286 -0.19231 -1.10457e-17 6.50583 -0.443523 -1.02089 7.15688 -0.147314 -1.97295e-17 7.60548 -1.50593 -0.497484 6.53863 -0.0560295 -2.53307e-17 9.49737 -0.914492 0.0537386 6.45365 -0.261879 -2.90401e-17 10.5513 1.57691 0.067205 0.190093 -0.0736794 -1.29193e-17 4.78644 0.715339 0.0428765 11.4999 -2.24617 -1.8116e-17 4.82109 0.421791 1.51878 -7.81067 -1.17128 -2.00958e-17 4.83041 0.765062 -1.32098 -12.0062 1.29586 1.23299 -7.60731 7.53374 8.76252 -1.92978 -0.604934 12.9547 3.2495 -3.26872 -56.1236 32.5641 -33.4926 29.2081 0.0598081 0.137039 5.92981 -1.54779 -29.8269 24.234 0.0496219 0.113701 -1.48138 -16.4071 -1.54704 -1.23299 -7.60729 7.53365 -6.71041 -2.22291 1.17416 -12.9547 3.2495 -3.26872 70.6868 22.8299 12.569 -29.2081 0.0598081 0.137039 -6.40242 -1.82981 32.4646 -24.234 0.0496218 0.113702 0.40876 3.14944 1.60155 9.23673 -4.20556 2.0327 -1.8174 -20.469 -10.1256 -0.852353 -38.7721 -0.655187 -3.2897 12.1741 0.13754 -2.32622 -40.4017 -6.04875 -7.08717 13.6318 16.1047 0.779096 -9.8844 12.4959 -5.09491e-17 -7.98297e-16 1.55823e-17 -9.23673 -4.20556 2.0327 -6.86698 -7.87161 23.8734 0.852353 -38.7721 -0.655187 5.37591 19.4861 -0.579829 2.32622 -40.4017 -6.04875 1.02752 -8.21828 -16.057 -0.779096 -9.8844 12.4959 -1.29043e-15 -5.38182e-16 -1.27137e-14 
-4.94565 93.1742 67.2245 3.37158 0.284853 3.26397 0 5.07867 -1.15138 -2.73648 6.86628 -0.133557 0 5.61661 1.07143 -2.07311 6.53268 -0.326577 -1.02604e-17 5.98978 0.11501 -1.52639 6.86241 -0.204639 -1.10457e-17 6.50583 -0.443523 -0.971833 7.12198 -0.159655 -1.97295e-17 7.60548 -1.50593 -0.454354 6.55043 -0.0779175 -2.53307e-17 9.49737 -0.914492 0.0849777 6.48965 -0.293398 -2.90401e-17 10.5513 1.57691 0.0657636 0.194238 -0.0697908 -1.29193e-17 4.78644 0.715339 0.0839336 11.463 -2.39769 -1.8116e-17 4.82109 0.421791 1.50236 -7.96495 -1.24563 -2.00958e-17 4.83041 0.765062 -1.33643 -12.2732 1.17678 1.23299 -7.60731 7.53374 8.66885 -1.88816 -0.550965 12.9547 3.2495 -3.26872 -56.452 33.0641 -33.0833 29.2081 0.0598081 0.137039 5.94427 -1.55599 -29.9066 24.234 0.0496219 0.113701 -1.52519 -18.5251 -1.43886 -1.23299 -7.60729 7.53365 -6.49201 -2.19139 1.22353 -12.9547 3.2495 -3.26872 70.6561 22.8135 12.4813 -29.2081 0.0598081 0.137039 -6.33839 -1.78984 32.1029 -24.234 0.0496218 0.113702 0.471635 1.45484 1.66133 9.23673 -4.20556 2.0327 -1.67525 -19.7463 -10.1393 -0.852353 -38.7721 -0.655187 -3.20179 11.8562 0.124792 -2.32622 -40.4017 -6.04875 -6.96989 13.4522 16.079 0.779096 -9.8844 12.4959 -1.04487e-15 -8.3971e-16 5.69957e-17 -9.23673 -4.20556 2.0327 -7.15321 -6.79657 23.0722 0.852353 -38.7721 -0.655187 4.95175 18.0404 -0.468679 2.32622 -40.4017 -6.04875 1.25911 -7.34957 -16.0088 -0.779096 -9.8844 12.4959 3.48014e-17 -5.89948e-16 -1.27655e-14 
-5.52118 93.1539 67.5485 3.5221 -0.0205118 3.29917 0 5.07867 -1.15138 -2.63084 6.77692 -0.140692 0 5.61661 1.07143 -1.9852 6.43418 -0.32519 -1.02604e-17 5.98978 0.11501 -1.45543 6.75349 -0.202496 -1.10457e-17 6.50583 -0.443523 -0.918997 6.99404 -0.158055 -1.97295e-17 7.60548 -1.50593 -0.412447 6.41491 -0.0861025 -2.53307e-17 9.49737 -0.914492 0.109592 6.34915 -0.309148 -2.90401e-17 10.5513 1.57691 0.0613628 0.216693 -0.065423 -1.29193e-17 4.78644 0.715339 0.119921 11.3345 -2.55548 -1.8116e-17 4.82109 0.421791 1.4723 -7.9267 -1.32002 -2.00958e-17 4.83041 0.765062 -1.48554 -12.3146 1.02731 1.23299 -7.60731 7.53374 8.4834 -1.70735 -0.636132 12.9547 3.2495 -3.26872 -56.7858 33.6302 -32.5443 29.2081 0.0598081 0.137039 5.90447 -1.53348 -29.6873 24.234 0.0496219 0.113701 -1.52008 -20.9817 -1.55034 -1.23299 -7.60729 7.53365 -6.34697 -2.00425 1.28636 -12.9547 3.2495 -3.26872 70.5287 23.3473 12.2513 -29.2081 0.0598081 0.137039 -6.25141 -1.73643 31.6136 -24.234 0.0496218 0.113702 0.730372 -2.23196 2.03073 9.23673 -4.20556 2.0327 -1.47066 -19.0439 -10.064 -0.852353 -38.7721 -0.655187 -3.13547 11.6159 0.1155 -2.32622 -40.4017 -6.04875 -6.74854 13.1189 16.0122 0.779096 -9.8844 12.4959 2.31588e-15 -6.99679e-16 -8.30358e-17 -9.23673 -4.20556 2.0327 -7.19744 -5.82802 22.958 0.852353 -38.7721 -0.655187 4.58482 16.7716 -0.381103 2.32622 -40.4017 -6.04875 1.01765 -7.04304 -15.9529 -0.779096 -9.8844 12.4959 1.06972e-15 -6.32643e-16 -1.28173e-14 
-6.09529 93.1256 67.873 3.67929 -0.262437 3.27714 0 5.07867 -1.15138 -2.54016 6.70605 -0.138442 0 5.61661 1.07143 -1.91322 6.34725 -0.315217 -1.02604e-17 5.98978 0.11501 -1.39942 6.65164 -0.191284 -1.10457e-17 6.50583 -0.443523 -0.881572 6.8635 -0.147016 -1.97295e-17 7.60548 -1.50593 -0.385062 6.2712 -0.0812838 -2.53307e-17 9.49737 -0.914492 0.123316 6.20145 -0.30831 -2.90401e-17 10.5513 1.57691 0.0537003 0.23614 -0.0613416 -1.29193e-17 4.78644 0.715339 0.1242 11.073 -2.72737 -1.8116e-17 4.82109 0.421791 1.38813 -7.86941 -1.40362 -2.00958e-17 4.83041 0.765062 -1.57263 -12.2703 0.942924 1.23299 -7.60731 7.53374 8.19518 -1.49375 -0.820892 12.9547 3.2495 -3.26872 -57.0852 34.0196 -31.9936 29.2081 0.0598081 0.137039 5.84374 -1.49952 -29.3536 24.234 0.0496219 0.113701 -1.42518 -23.4728 -1.63541 -1.23299 -7.60729 7.53365 -6.02961 -1.76234 1.44062 -12.9547 3.2495 -3.26872 70.3332 24.0516 11.9615 -29.2081 0.0598081 0.137039 -6.19985 -1.70525 31.3249 -24.234 0.0496218 0.113702 1.08624 -7.0784 2.44531 9.23673 -4.20556 2.0327 -1.24892 -18.3882 -9.84009 -0.852353 -38.7721 -0.655187 -3.06639 11.3653 0.106117 -2.32622 -40.4017 -6.04875 -6.57559 12.7472 15.9713 0.779096 -9.8844 12.4959 1.81655e-17 -8.00085e-16 1.73702e-17 -9.23673 -4.20556 2.0327 -7.16681 -4.94282 23.2434 0.852353 -38.7721 -0.655187 4.20439 15.4394 -0.298853 2.32622 -40.4017 -6.04875 0.92697 -6.64053 -15.9217 -0.779096 -9.8844 12.4959 4.95291e-16 -6.11042e-16 -1.2792e-14 
